<?xml version="1.0" encoding="utf-8"?>
<svg xmlns="http://www.w3.org/2000/svg" viewBox="247.168 39.185 104 94.974" width="104px" height="94.974px"><g id="object-0"><path fill-rule="evenodd" clip-rule="evenodd" d="M 247.168 39.185 L 300.168 39.185 L 300.168 118.692 C 299.549 118.439 298.956 117.955 298.195 117.303 C 297.119 116.465 296.55 115.526 295.971 114.571 C 295.868 114.401 295.765 114.23 295.658 114.06 C 295.625 114.026 295.514 113.869 295.34 113.622 C 294.773 112.816 293.536 111.058 292.134 109.547 C 291.57 108.983 291.186 108.689 288.883 106.929 C 288.311 106.491 287.62 105.963 286.778 105.317 L 286.775 105.315 C 284.521 103.625 283.394 102.779 283.113 102.638 C 280.139 100.481 275.596 99.344 270.911 98.172 C 266.715 97.122 262.406 96.043 259.009 94.178 C 255.626 92.345 251.115 88.819 247.168 82.192 L 247.168 39.185 Z" fill="#C92A2A"/><path fill-rule="evenodd" clip-rule="evenodd" d="M 351.168 39.185 L 298.168 39.185 L 298.168 118.692 C 298.787 118.439 299.38 117.955 300.141 117.303 C 301.218 116.465 301.787 115.526 302.365 114.571 C 302.468 114.401 302.572 114.23 302.678 114.06 C 302.711 114.026 302.822 113.869 302.996 113.622 C 303.563 112.816 304.8 111.058 306.202 109.547 C 306.767 108.983 307.15 108.689 309.453 106.929 C 310.026 106.491 310.717 105.963 311.559 105.317 L 311.561 105.315 C 313.815 103.625 314.942 102.779 315.224 102.638 C 318.198 100.481 322.741 99.344 327.425 98.172 C 331.621 97.122 335.931 96.043 339.328 94.178 C 342.711 92.345 347.221 88.819 351.168 82.192 L 351.168 39.185 Z" fill="#C92A2A"/><path d="M 299.153 125.185 L 294.668 129.672 L 299.153 134.159 L 303.639 129.672 L 299.153 125.185 Z" fill="#C92A2A"/></g></svg>