<svg width="848" height="95" viewBox="0 0 848 95" fill="none" xmlns="http://www.w3.org/2000/svg">
<path fill-rule="evenodd" clip-rule="evenodd" d="M0 0H53V79.5067C52.3807 79.2542 51.7877 78.7696 51.0271 78.1175C49.9505 77.2799 49.3815 76.3407 48.8032 75.3861C48.7 75.2159 48.5965 75.0451 48.4898 74.8743C48.4568 74.8412 48.346 74.6838 48.1721 74.4366C47.6053 73.6311 46.3681 71.8728 44.9659 70.3621C44.4014 69.7975 44.0177 69.5042 41.7151 67.7438C41.1425 67.3061 40.4514 66.7777 39.6094 66.1319L39.6069 66.1301C37.3532 64.4393 36.2263 63.5938 35.9445 63.4528C32.9704 61.2959 28.4274 60.1589 23.7432 58.9867C19.547 57.9365 15.2375 56.858 11.8406 54.9924C8.45756 53.1594 3.94685 49.6342 0 43.0069V0Z" fill="#C92A2A"/>
<path fill-rule="evenodd" clip-rule="evenodd" d="M106 0H53V79.5067C53.6193 79.2542 54.2123 78.7696 54.9729 78.1175C56.0495 77.2799 56.6185 76.3407 57.1968 75.3861C57.3 75.2159 57.4035 75.0451 57.5102 74.8743C57.5432 74.8412 57.654 74.6838 57.8279 74.4366C58.3947 73.6311 59.6319 71.8728 61.0341 70.3621C61.5986 69.7975 61.9823 69.5042 64.2849 67.7438C64.8575 67.3061 65.5486 66.7777 66.3906 66.1319L66.3931 66.1301C68.6468 64.4393 69.7737 63.5938 70.0555 63.4528C73.0296 61.2959 77.5726 60.1589 82.2568 58.9867C86.453 57.9365 90.7625 56.858 94.1594 54.9924C97.5424 53.1594 102.053 49.6342 106 43.0069V0Z" fill="#C92A2A"/>
<path d="M52.9852 86L48.5 90.4868L52.9852 94.9735L57.4705 90.4868L52.9852 86Z" fill="#C92A2A"/>
<path fill-rule="evenodd" clip-rule="evenodd" d="M742 0H795V79.5067C794.381 79.2542 793.788 78.7696 793.027 78.1175C791.951 77.2799 791.381 76.3407 790.803 75.3861C790.7 75.2159 790.597 75.0451 790.49 74.8743C790.457 74.8412 790.346 74.6838 790.172 74.4366C789.605 73.6311 788.368 71.8728 786.966 70.3621C786.401 69.7975 786.018 69.5042 783.715 67.7438C783.143 67.3061 782.451 66.7777 781.609 66.1319L781.607 66.1301C779.353 64.4393 778.226 63.5938 777.944 63.4528C774.97 61.2959 770.427 60.1589 765.743 58.9867C761.547 57.9365 757.237 56.858 753.841 54.9924C750.458 53.1594 745.947 49.6342 742 43.0069V0Z" fill="#C92A2A"/>
<path fill-rule="evenodd" clip-rule="evenodd" d="M848 0H795V79.5067C795.619 79.2542 796.212 78.7696 796.973 78.1175C798.049 77.2799 798.619 76.3407 799.197 75.3861C799.3 75.2159 799.403 75.0451 799.51 74.8743C799.543 74.8412 799.654 74.6838 799.828 74.4366C800.395 73.6311 801.632 71.8728 803.034 70.3621C803.599 69.7975 803.982 69.5042 806.285 67.7438C806.857 67.3061 807.549 66.7777 808.391 66.1319L808.393 66.1301C810.647 64.4393 811.774 63.5938 812.056 63.4528C815.03 61.2959 819.573 60.1589 824.257 58.9867C828.453 57.9365 832.763 56.858 836.159 54.9924C839.542 53.1594 844.053 49.6342 848 43.0069V0Z" fill="#C92A2A"/>
<path d="M794.985 86L790.5 90.4868L794.985 94.9735L799.47 90.4868L794.985 86Z" fill="#C92A2A"/>
<path fill-rule="evenodd" clip-rule="evenodd" d="M636 0H689V79.5067C688.381 79.2542 687.788 78.7696 687.027 78.1175C685.951 77.2799 685.381 76.3407 684.803 75.3861C684.7 75.2159 684.597 75.0451 684.49 74.8743C684.457 74.8412 684.346 74.6838 684.172 74.4366C683.605 73.6311 682.368 71.8728 680.966 70.3621C680.401 69.7975 680.018 69.5042 677.715 67.7438C677.143 67.3061 676.451 66.7777 675.609 66.1319L675.607 66.1301C673.353 64.4393 672.226 63.5938 671.944 63.4528C668.97 61.2959 664.427 60.1589 659.743 58.9867C655.547 57.9365 651.237 56.858 647.841 54.9924C644.458 53.1594 639.947 49.6342 636 43.0069V0Z" fill="#C92A2A"/>
<path fill-rule="evenodd" clip-rule="evenodd" d="M742 0H689V79.5067C689.619 79.2542 690.212 78.7696 690.973 78.1175C692.049 77.2799 692.619 76.3407 693.197 75.3861C693.3 75.2159 693.403 75.0451 693.51 74.8743C693.543 74.8412 693.654 74.6838 693.828 74.4366C694.395 73.6311 695.632 71.8728 697.034 70.3621C697.599 69.7975 697.982 69.5042 700.285 67.7438C700.857 67.3061 701.549 66.7777 702.391 66.1319L702.393 66.1301C704.647 64.4393 705.774 63.5938 706.056 63.4528C709.03 61.2959 713.573 60.1589 718.257 58.9867C722.453 57.9365 726.763 56.858 730.159 54.9924C733.542 53.1594 738.053 49.6342 742 43.0069V0Z" fill="#C92A2A"/>
<path d="M688.985 86L684.5 90.4868L688.985 94.9735L693.47 90.4868L688.985 86Z" fill="#C92A2A"/>
<path fill-rule="evenodd" clip-rule="evenodd" d="M530 0H583V79.5067C582.381 79.2542 581.788 78.7696 581.027 78.1175C579.951 77.2799 579.381 76.3407 578.803 75.3861C578.7 75.2159 578.597 75.0451 578.49 74.8743C578.457 74.8412 578.346 74.6838 578.172 74.4366C577.605 73.6311 576.368 71.8728 574.966 70.3621C574.401 69.7975 574.018 69.5042 571.715 67.7438C571.143 67.3061 570.451 66.7777 569.609 66.1319L569.607 66.1301C567.353 64.4393 566.226 63.5938 565.944 63.4528C562.97 61.2959 558.427 60.1589 553.743 58.9867C549.547 57.9365 545.237 56.858 541.841 54.9924C538.458 53.1594 533.947 49.6342 530 43.0069V0Z" fill="#C92A2A"/>
<path fill-rule="evenodd" clip-rule="evenodd" d="M636 0H583V79.5067C583.619 79.2542 584.212 78.7696 584.973 78.1175C586.049 77.2799 586.619 76.3407 587.197 75.3861C587.3 75.2159 587.403 75.0451 587.51 74.8743C587.543 74.8412 587.654 74.6838 587.828 74.4366C588.395 73.6311 589.632 71.8728 591.034 70.3621C591.599 69.7975 591.982 69.5042 594.285 67.7438C594.857 67.3061 595.549 66.7777 596.391 66.1319L596.393 66.1301C598.647 64.4393 599.774 63.5938 600.056 63.4528C603.03 61.2959 607.573 60.1589 612.257 58.9867C616.453 57.9365 620.763 56.858 624.159 54.9924C627.542 53.1594 632.053 49.6342 636 43.0069V0Z" fill="#C92A2A"/>
<path d="M582.985 86L578.5 90.4868L582.985 94.9735L587.47 90.4868L582.985 86Z" fill="#C92A2A"/>
<path fill-rule="evenodd" clip-rule="evenodd" d="M424 0H477V79.5067C476.381 79.2542 475.788 78.7696 475.027 78.1175C473.951 77.2799 473.381 76.3407 472.803 75.3861C472.7 75.2159 472.597 75.0451 472.49 74.8743C472.457 74.8412 472.346 74.6838 472.172 74.4366C471.605 73.6311 470.368 71.8728 468.966 70.3621C468.401 69.7975 468.018 69.5042 465.715 67.7438C465.143 67.3061 464.451 66.7777 463.609 66.1319L463.607 66.1301C461.353 64.4393 460.226 63.5938 459.944 63.4528C456.97 61.2959 452.427 60.1589 447.743 58.9867C443.547 57.9365 439.237 56.858 435.841 54.9924C432.458 53.1594 427.947 49.6342 424 43.0069V0Z" fill="#C92A2A"/>
<path fill-rule="evenodd" clip-rule="evenodd" d="M530 0H477V79.5067C477.619 79.2542 478.212 78.7696 478.973 78.1175C480.049 77.2799 480.619 76.3407 481.197 75.3861C481.3 75.2159 481.403 75.0451 481.51 74.8743C481.543 74.8412 481.654 74.6838 481.828 74.4366C482.395 73.6311 483.632 71.8728 485.034 70.3621C485.599 69.7975 485.982 69.5042 488.285 67.7438C488.857 67.3061 489.549 66.7777 490.391 66.1319L490.393 66.1301C492.647 64.4393 493.774 63.5938 494.056 63.4528C497.03 61.2959 501.573 60.1589 506.257 58.9867C510.453 57.9365 514.763 56.858 518.159 54.9924C521.542 53.1594 526.053 49.6342 530 43.0069V0Z" fill="#C92A2A"/>
<path d="M476.985 86L472.5 90.4868L476.985 94.9735L481.47 90.4868L476.985 86Z" fill="#C92A2A"/>
<path fill-rule="evenodd" clip-rule="evenodd" d="M318 0H371V79.5067C370.381 79.2542 369.788 78.7696 369.027 78.1175C367.951 77.2799 367.381 76.3407 366.803 75.3861C366.7 75.2159 366.597 75.0451 366.49 74.8743C366.457 74.8412 366.346 74.6838 366.172 74.4366C365.605 73.6311 364.368 71.8728 362.966 70.3621C362.401 69.7975 362.018 69.5042 359.715 67.7438C359.143 67.3061 358.451 66.7777 357.609 66.1319L357.607 66.1301C355.353 64.4393 354.226 63.5938 353.944 63.4528C350.97 61.2959 346.427 60.1589 341.743 58.9867C337.547 57.9365 333.237 56.858 329.841 54.9924C326.458 53.1594 321.947 49.6342 318 43.0069V0Z" fill="#C92A2A"/>
<path fill-rule="evenodd" clip-rule="evenodd" d="M424 0H371V79.5067C371.619 79.2542 372.212 78.7696 372.973 78.1175C374.049 77.2799 374.619 76.3407 375.197 75.3861C375.3 75.2159 375.403 75.0451 375.51 74.8743C375.543 74.8412 375.654 74.6838 375.828 74.4366C376.395 73.6311 377.632 71.8728 379.034 70.3621C379.599 69.7975 379.982 69.5042 382.285 67.7438C382.857 67.3061 383.549 66.7777 384.391 66.1319L384.393 66.1301C386.647 64.4393 387.774 63.5938 388.056 63.4528C391.03 61.2959 395.573 60.1589 400.257 58.9867C404.453 57.9365 408.763 56.858 412.159 54.9924C415.542 53.1594 420.053 49.6342 424 43.0069V0Z" fill="#C92A2A"/>
<path d="M370.985 86L366.5 90.4868L370.985 94.9735L375.47 90.4868L370.985 86Z" fill="#C92A2A"/>
<path fill-rule="evenodd" clip-rule="evenodd" d="M212 0H265V79.5067C264.381 79.2542 263.788 78.7696 263.027 78.1175C261.951 77.2799 261.381 76.3407 260.803 75.3861C260.7 75.2159 260.597 75.0451 260.49 74.8743C260.457 74.8412 260.346 74.6838 260.172 74.4366C259.605 73.6311 258.368 71.8728 256.966 70.3621C256.401 69.7975 256.018 69.5042 253.715 67.7438C253.143 67.3061 252.451 66.7777 251.609 66.1319L251.607 66.1301C249.353 64.4393 248.226 63.5938 247.944 63.4528C244.97 61.2959 240.427 60.1589 235.743 58.9867C231.547 57.9365 227.237 56.858 223.841 54.9924C220.458 53.1594 215.947 49.6342 212 43.0069V0Z" fill="#C92A2A"/>
<path fill-rule="evenodd" clip-rule="evenodd" d="M318 0H265V79.5067C265.619 79.2542 266.212 78.7696 266.973 78.1175C268.049 77.2799 268.619 76.3407 269.197 75.3861C269.3 75.2159 269.403 75.0451 269.51 74.8743C269.543 74.8412 269.654 74.6838 269.828 74.4366C270.395 73.6311 271.632 71.8728 273.034 70.3621C273.599 69.7975 273.982 69.5042 276.285 67.7438C276.857 67.3061 277.549 66.7777 278.391 66.1319L278.393 66.1301C280.647 64.4393 281.774 63.5938 282.056 63.4528C285.03 61.2959 289.573 60.1589 294.257 58.9867C298.453 57.9365 302.763 56.858 306.159 54.9924C309.542 53.1594 314.053 49.6342 318 43.0069V0Z" fill="#C92A2A"/>
<path d="M264.985 86L260.5 90.4868L264.985 94.9735L269.47 90.4868L264.985 86Z" fill="#C92A2A"/>
<path fill-rule="evenodd" clip-rule="evenodd" d="M106 0H159V79.5067C158.381 79.2542 157.788 78.7696 157.027 78.1175C155.951 77.2799 155.381 76.3407 154.803 75.3861C154.7 75.2159 154.597 75.0451 154.49 74.8743C154.457 74.8412 154.346 74.6838 154.172 74.4366C153.605 73.6311 152.368 71.8728 150.966 70.3621C150.401 69.7975 150.018 69.5042 147.715 67.7438C147.143 67.3061 146.451 66.7777 145.609 66.1319L145.607 66.1301C143.353 64.4393 142.226 63.5938 141.944 63.4528C138.97 61.2959 134.427 60.1589 129.743 58.9867C125.547 57.9365 121.237 56.858 117.841 54.9924C114.458 53.1594 109.947 49.6342 106 43.0069V0Z" fill="#C92A2A"/>
<path fill-rule="evenodd" clip-rule="evenodd" d="M212 0H159V79.5067C159.619 79.2542 160.212 78.7696 160.973 78.1175C162.049 77.2799 162.619 76.3407 163.197 75.3861C163.3 75.2159 163.403 75.0451 163.51 74.8743C163.543 74.8412 163.654 74.6838 163.828 74.4366C164.395 73.6311 165.632 71.8728 167.034 70.3621C167.599 69.7975 167.982 69.5042 170.285 67.7438C170.857 67.3061 171.549 66.7777 172.391 66.1319L172.393 66.1301C174.647 64.4393 175.774 63.5938 176.056 63.4528C179.03 61.2959 183.573 60.1589 188.257 58.9867C192.453 57.9365 196.763 56.858 200.159 54.9924C203.542 53.1594 208.053 49.6342 212 43.0069V0Z" fill="#C92A2A"/>
<path d="M158.985 86L154.5 90.4868L158.985 94.9735L163.47 90.4868L158.985 86Z" fill="#C92A2A"/>
</svg>
