<svg xmlns="http://www.w3.org/2000/svg" width="728" height="97" fill="none" viewBox="0 0 728 97">
  <path fill="#C92A2A" d="M101.297 0v43.43c-.986-.141-2.537-.282-3.947.423-1.832.846-2.255 2.538-3.947 4.935-1.55 2.397-3.1 3.807-5.356 5.64-1.973 1.834-4.088 3.667-7.47 4.936-1.833.705-1.833.423-6.062 1.41-3.665.846-6.061 1.55-8.88 2.82-3.947 1.833-6.625 4.23-7.471 4.935-2.537 2.397-4.793 5.358-5.639 6.345-2.255 2.962-3.383 5.077-4.933 4.936-.846 0-1.55-.706-2.537-1.552-1.128-1.128-1.692-2.115-2.397-3.243-.14-.14-1.55-2.538-3.242-4.512-.704-.705-.986-.987-5.074-4.23-2.115-1.692-3.242-2.538-3.383-2.68-5.357-4.088-16.21-4.511-22.976-8.46C4.74 53.3.512 49.776-3.294 43.148V.14"/>
  <path fill="#C92A2A" d="M205.184 0v43.43c-.987-.141-2.537-.282-3.947.423-1.832.846-2.255 2.538-3.947 4.935-1.55 2.397-3.101 3.807-5.356 5.64-1.974 1.834-4.088 3.667-7.471 4.936-1.832.705-1.832.423-6.061 1.41-3.665.846-6.061 1.55-8.881 2.82-3.946 1.833-6.625 4.23-7.47 4.935-2.538 2.397-4.793 5.358-5.639 6.345-2.255 2.962-3.383 5.077-4.933 4.936-.846 0-1.551-.706-2.538-1.552-1.127-1.128-1.691-2.115-2.396-3.243-.141-.14-1.55-2.538-3.242-4.512-.705-.705-.987-.987-5.074-4.23-2.115-1.692-3.243-2.538-3.383-2.68-5.357-4.088-16.211-4.511-22.977-8.46-3.242-1.833-7.471-5.358-11.276-11.985V.14"/>
  <path fill="#C92A2A" d="M309.211 0v43.43c-.986-.141-2.537-.282-3.946.423-1.833.846-2.256 2.538-3.947 4.935-1.551 2.397-3.101 3.807-5.357 5.64-1.973 1.834-4.087 3.667-7.47 4.936-1.833.705-1.833.423-6.062 1.41-3.665.846-6.061 1.55-8.88 2.82-3.947 1.833-6.625 4.23-7.471 4.935-2.537 2.397-4.792 5.358-5.638 6.345-2.256 2.962-3.383 5.077-4.934 4.936-.846 0-1.55-.706-2.537-1.552-1.128-1.128-1.692-2.115-2.396-3.243-.141-.14-1.551-2.538-3.242-4.512-.705-.705-.987-.987-5.075-4.23-2.114-1.692-3.242-2.538-3.383-2.68-5.356-4.088-16.21-4.511-22.976-8.46-3.242-1.833-7.471-5.358-11.277-11.985V.14"/>
  <path fill="#C92A2A" d="M413.098 0v43.43c-.987-.141-2.537-.282-3.947.423-1.832.846-2.255 2.538-3.947 4.935-1.55 2.397-3.101 3.807-5.356 5.64-1.974 1.834-4.088 3.667-7.471 4.936-1.832.705-1.832.423-6.061 1.41-3.665.846-6.061 1.55-8.881 2.82-3.946 1.833-6.625 4.23-7.47 4.935-2.538 2.397-4.793 5.358-5.639 6.345-2.255 2.962-3.383 5.077-4.933 4.936-.846 0-1.551-.706-2.538-1.552-1.127-1.128-1.691-2.115-2.396-3.243-.141-.14-1.55-2.538-3.242-4.512-.705-.705-.987-.987-5.074-4.23-2.115-1.692-3.242-2.538-3.383-2.68-5.357-4.088-16.211-4.511-22.977-8.46-3.242-1.833-7.471-5.358-11.276-11.985V.14"/>
  <path fill="#C92A2A" d="M517.126 0v43.43c-.987-.141-2.538-.282-3.947.423-1.833.846-2.256 2.538-3.947 4.935-1.551 2.397-3.101 3.807-5.357 5.64-1.973 1.834-4.087 3.667-7.47 4.936-1.833.705-1.833.423-6.062 1.41-3.665.846-6.061 1.55-8.88 2.82-3.947 1.833-6.625 4.23-7.471 4.935-2.537 2.397-4.792 5.358-5.638 6.345-2.255 2.962-3.383 5.077-4.934 4.936-.845 0-1.55-.706-2.537-1.552-1.128-1.128-1.691-2.115-2.396-3.243-.141-.14-1.551-2.538-3.242-4.512-.705-.705-.987-.987-5.075-4.23-2.114-1.692-3.242-2.538-3.383-2.68-5.356-4.088-16.21-4.511-22.976-8.46-3.242-1.833-7.471-5.358-11.277-11.985V.14"/>
  <path fill="#C92A2A" d="M621.012 0v43.43c-.987-.141-2.537-.282-3.947.423-1.832.846-2.255 2.538-3.946 4.935-1.551 2.397-3.102 3.807-5.357 5.64-1.973 1.834-4.088 3.667-7.471 4.936-1.832.705-1.832.423-6.061 1.41-3.665.846-6.061 1.55-8.88 2.82-3.947 1.833-6.625 4.23-7.471 4.935-2.537 2.397-4.793 5.358-5.639 6.345-2.255 2.962-3.383 5.077-4.933 4.936-.846 0-1.551-.706-2.537-1.552-1.128-1.128-1.692-2.115-2.397-3.243-.141-.14-1.55-2.538-3.242-4.512-.704-.705-.986-.987-5.074-4.23-2.115-1.692-3.242-2.538-3.383-2.68-5.357-4.088-16.211-4.511-22.977-8.46-3.242-1.833-7.47-5.358-11.276-11.985V.14M728 0H621.012v43.007c3.947 6.627 8.458 10.152 11.841 11.985 7.189 3.949 18.465 4.372 24.104 8.46.282.142 1.409.988 3.665 2.68 4.228 3.243 4.651 3.525 5.356 4.23 1.833 1.974 3.383 4.371 3.524 4.512.705 1.128 1.269 2.256 2.537 3.244.987.846 1.692 1.41 2.538 1.55 1.691.141 2.819-1.974 5.215-4.935.846-.987 3.242-3.948 5.92-6.345.846-.705 3.665-3.102 7.753-4.935 2.96-1.27 5.497-1.974 9.303-2.82 4.37-.987 4.37-.705 6.343-1.41 3.383-1.27 5.639-3.102 7.753-4.936 2.255-1.833 3.947-3.243 5.639-5.64 1.691-2.397 2.114-4.089 4.087-4.935l1.269-.423V0H728ZM48.221 87.915l-4.485 4.487 4.485 4.487 4.486-4.487-4.486-4.487Zm104.041.035-4.485 4.486 4.485 4.487 4.485-4.487-4.485-4.487Zm103.336.033-4.485 4.487 4.485 4.487 4.485-4.487-4.485-4.487Zm104.14-.065-4.485 4.486 4.485 4.487 4.485-4.487-4.485-4.486Zm103.622.042-4.486 4.487 4.486 4.486 4.485-4.487-4.485-4.486Zm103.435-.066-4.485 4.487 4.485 4.487 4.485-4.487-4.485-4.487Zm107.011.059-4.485 4.487 4.485 4.486 4.485-4.486-4.485-4.487Z"/>
</svg>
